<svg xmlns="http://www.w3.org/2000/svg" id="Layer_1" data-name="Layer 1" viewBox="202.48 514.93 785.59 708.18"><defs><style>.cls-1{font-size:83px;fill:#fff;font-family:Oswald-DemiBold, Oswald;font-weight:300;}.cls-2{fill:#009ad0;}.cls-3{fill:#004c83;}</style></defs><title>Artboard 1 copy</title><path class="cls-2" d="M398.88,999.46l-173.62,213c-7.63,9.36-22.78,4-22.78-8.11V659.23A12.84,12.84,0,0,1,207.59,649L378.33,520.36c5.5-4.15,20.55-7.57,20.55-3.52V999.46Z"/><path class="cls-2" d="M791.67,999.46l-173.62,213c-6.26,7.68-22.77,13.53-22.77,9.14V652.84L771.12,520.36c4.94-3.73,20.55-7.63,20.55-3.94v483Z"/><path class="cls-3" d="M398.87,999.46l173.63,213c6.26,7.69,22.78,13.53,22.78,9.15V652.84L419.43,520.36c-5.65-4.26-20.55-7.54-20.55-3.38V999.46Z"/><path class="cls-3" d="M791.67,999.46l173.62,213c7.63,9.36,22.78,4,22.78-8.1V659.23A12.82,12.82,0,0,0,983,649L812.22,520.36c-5.34-4-20.55-7.6-20.55-3.66V999.46Z"/></svg>